<svg xmlns="http://www.w3.org/2000/svg" viewBox="0 0 459.8 729.22"><defs><style>.cls-1{fill:#ee9f28;}.cls-2,.cls-4{fill:none;stroke-miterlimit:10;}.cls-2{stroke:#000;}.cls-3{fill:#050505;}.cls-4{stroke:#050505;stroke-width:3px;}</style></defs><title>Fichier 1</title><g id="Calque_2" data-name="Calque 2"><g id="Calque_1-2" data-name="Calque 1"><path class="cls-1" d="M228.67,458.42l3.26,2.94c24.41-21.63,80.34-77.74,102-157.62,2.3-8.46,6.69-21.52,9.39-38.36,4.09-25.45,12.18-75.83-14.92-119.25-4.34-6.95-13.61-22.19-32.14-33.77a116.57,116.57,0,0,0-50.19-16.77,124.48,124.48,0,0,0-22.69,0c-10,.9-33.07,3.23-55.21,18.21a119.06,119.06,0,0,0-30.34,32.33c-22.07,35.26-18.72,74-16.27,102.47a264.23,264.23,0,0,0,10.74,55.14,300.45,300.45,0,0,0,20.38,49.81C177.43,402,213,441.71,231.93,461.36"/><path d="M228.8,458.27l3.32,2.88h-.38c8.16-7.58,16-15.45,23.53-23.66s14.62-16.76,21.44-25.53l5-6.66,1.25-1.66,1.19-1.71,2.38-3.41,2.38-3.42c.81-1.13,1.59-2.27,2.33-3.45l4.5-7c1.54-2.3,2.93-4.71,4.35-7.09l4.25-7.14,4-7.32c1.31-2.45,2.68-4.86,3.83-7.38,2.36-5,4.94-9.93,7-15.08l3.23-7.66c1.05-2.56,1.91-5.19,2.88-7.79s1.91-5.19,2.79-7.81l2.38-8c1.64-5.25,3.15-10.7,4.71-16s3-10.68,4.21-16.07,2.23-10.79,3.11-16.3a283,283,0,0,0,3.86-33A175.53,175.53,0,0,0,345,194.89a129.6,129.6,0,0,0-8.6-32,113.14,113.14,0,0,0-7.5-14.82,129.74,129.74,0,0,0-9.27-13.79,94.8,94.8,0,0,0-11.33-12.11,89.05,89.05,0,0,0-13.34-9.83,109.18,109.18,0,0,0-14.79-7.5,114.81,114.81,0,0,0-15.77-5.15,116.56,116.56,0,0,0-32.85-3.42,138.71,138.71,0,0,0-32.64,5.08,104.12,104.12,0,0,0-29.72,13.83l-.93.29a1,1,0,0,0,.62-.09l.1,0-.08.06-.3.21-.6.45-1.2.92c-.79.61-1.59,1.25-2.36,1.89-1.56,1.29-3.09,2.63-4.58,4-3,2.75-5.83,5.65-8.54,8.65a106.2,106.2,0,0,0-14.13,19.67,112.34,112.34,0,0,0-9.51,22.25,132.77,132.77,0,0,0-4.7,23.8c-1.74,16.16-.84,32.51.6,48.86a269.57,269.57,0,0,0,8.19,48.22,300,300,0,0,0,16.54,46.09c1.69,3.73,3.46,7.41,5.29,11.08s3.76,7.28,5.67,10.89c4,7.17,8.06,14.27,12.44,21.2A456.28,456.28,0,0,0,200,423.77q7.62,9.69,15.62,19.07t16.43,18.38l-.28.28a483.63,483.63,0,0,1-62.53-76.4,356.24,356.24,0,0,1-24.19-43.22,291.89,291.89,0,0,1-17.27-46.52,264.47,264.47,0,0,1-8.53-48.91c-1.42-16.39-2.4-33.08-.45-49.67a137,137,0,0,1,5-24.51,116.24,116.24,0,0,1,10-23,109,109,0,0,1,14.74-20.23,125,125,0,0,1,8.88-8.8q2.32-2.1,4.77-4.06c.81-.66,1.63-1.3,2.47-1.94l1.26-.94.64-.46.33-.23.08-.06s.08-.06.26-.16a2.35,2.35,0,0,1,.94-.3l-.94.28a106.2,106.2,0,0,1,30.81-13.86,121.54,121.54,0,0,1,16.56-3.28c2.79-.38,5.59-.64,8.38-.87s5.61-.37,8.42-.42a119.1,119.1,0,0,1,33.35,4,116.66,116.66,0,0,1,30.85,13.15,90.37,90.37,0,0,1,13.47,10,98.65,98.65,0,0,1,11.42,12.32A131.36,131.36,0,0,1,330,147.42a125.93,125.93,0,0,1,7.7,14.92,137.87,137.87,0,0,1,9.23,32.25,175.92,175.92,0,0,1,2,33.54,284.93,284.93,0,0,1-3.25,33.41,231.66,231.66,0,0,1-7.13,32.85c-1.56,5.38-3,10.67-4.68,16.06l-2.46,8c-.92,2.65-1.93,5.27-2.89,7.9s-1.89,5.28-3,7.87L322.17,342c-2.1,5.2-4.74,10.15-7.16,15.19-10,20.07-22.59,38.73-36.46,56.24-7,8.68-14.3,17.19-22.1,25.18s-15.85,15.74-24.33,23l-.2.17-.18-.17-3.21-3Z"/><path d="M232.35,461.51a196,196,0,0,1-16.1,13.05,193.42,193.42,0,0,1-17.37,11.37c-6,3.49-12.19,6.65-18.43,9.59s-12.54,5.88-19.08,8.29c-13,4.89-27,7.93-41,7.57A104.75,104.75,0,0,1,79.64,502a144.79,144.79,0,0,1-35-22.62,137.39,137.39,0,0,1-14.74-14.71,123,123,0,0,1-11.8-17.11A131.36,131.36,0,0,1,3.65,408.78c-.67-3.4-1.3-6.81-1.74-10.24S1,391.67.73,388.22C.14,381.31,0,374.38,0,367.46s.38-13.84.77-20.73c.09-1.71.23-3.45.35-5.18s.22-3.46.42-5.19l.58-5.17c.18-1.73.48-3.44.71-5.16.45-3.44,1.13-6.85,1.72-10.27S6,309,6.81,305.59s1.76-6.73,2.68-10.08,2-6.65,3.19-9.92a253.06,253.06,0,0,1,16.75-38.12c3.28-6.13,6.85-12.1,10.62-17.93S47.77,218,51.92,212.43s8.5-11,13-16.26,9-10.51,13.69-15.61A322.07,322.07,0,0,1,141.83,127c5.82-3.74,11.72-7.35,17.76-10.7s12.15-6.58,18.38-9.55l.18.35q-9.09,5-17.9,10.32c-5.89,3.56-11.6,7.4-17.29,11.26a360.35,360.35,0,0,0-32.43,25.4,332.41,332.41,0,0,0-29.1,29C72.35,193.45,63.46,204,55.34,215c-16.3,22-30,46-39.11,71.85-1.18,3.21-2.18,6.48-3.23,9.73s-1.94,6.57-2.77,9.89-1.61,6.64-2.38,10S6.48,323.13,6,326.52c-1.16,6.75-1.87,13.56-2.47,20.4S2.43,360.64,2.2,367.51c-.43,13.71.14,27.52,2.83,41a138.86,138.86,0,0,0,5.48,19.82,115.93,115.93,0,0,0,8.76,18.59,114.18,114.18,0,0,0,11.93,16.7,135.15,135.15,0,0,0,14.92,14.07A144.43,144.43,0,0,0,81,499a108.37,108.37,0,0,0,39.45,8.89,94.64,94.64,0,0,0,20.22-1.61c3.34-.58,6.65-1.39,9.94-2.26s6.53-1.93,9.75-3.08c6.43-2.29,12.75-4.95,19-7.76s12.47-5.72,18.5-9,11.91-6.83,17.62-10.66,11.24-7.92,16.62-12.23Z"/><path d="M232.35,461.21c5.29,4.32,10.73,8.44,16.35,12.28s11.44,7.38,17.37,10.7,12,6.27,18.26,9.07,12.44,5.5,18.8,7.79c12.7,4.59,26.1,7.3,39.51,6.76a103.84,103.84,0,0,0,38.91-9.38,141.28,141.28,0,0,0,34.12-21.7c2.58-2.19,5.1-4.47,7.52-6.84a85.12,85.12,0,0,0,6.92-7.43,114.41,114.41,0,0,0,11.48-16.78,123.93,123.93,0,0,0,13.46-38.3c.64-3.34,1.12-6.7,1.54-10.08s.67-6.76.84-10.16c.39-6.79.39-13.6.16-20.4s-.74-13.59-1.3-20.39-1.3-13.52-2.45-20.21l-.4-2.51-.47-2.5-1-5c-.75-3.31-1.44-6.63-2.33-9.9s-1.78-6.54-2.69-9.8-2-6.48-3.15-9.67c-8.88-25.64-22.2-49.57-38.12-71.53-7.92-11-16.62-21.51-25.5-31.82a329,329,0,0,0-28.51-29.1,354,354,0,0,0-66.49-47.21l.18-.35c6.15,3,12.18,6.23,18.12,9.62s11.77,7,17.49,10.77c2.84,1.92,5.7,3.81,8.47,5.82,1.39,1,2.81,2,4.18,3l4.12,3.08c2.77,2,5.41,4.22,8.12,6.32s5.28,4.38,7.89,6.62a333.08,333.08,0,0,1,29.32,28.89c4.63,5.1,9,10.31,13.4,15.61s8.6,10.7,12.66,16.25,7.91,11.25,11.58,17.07,7.15,11.76,10.34,17.86a254.68,254.68,0,0,1,16.31,37.89c1.13,3.26,2.1,6.56,3.1,9.85s1.86,6.63,2.61,10,1.49,6.72,2.19,10.09l.89,5.08.44,2.54.36,2.55c1.06,6.8,1.61,13.67,2,20.51s.7,13.68.77,20.53a202.4,202.4,0,0,1-3.35,41,136.27,136.27,0,0,1-5.37,19.85c-1.13,3.24-2.42,6.42-3.77,9.58-.73,1.55-1.42,3.12-2.19,4.66s-1.51,3.08-2.38,4.57a122.66,122.66,0,0,1-11.33,17.19,88.41,88.41,0,0,1-6.83,7.75q-3.58,3.72-7.43,7.16a151.47,151.47,0,0,1-16.23,12.75,128.31,128.31,0,0,1-18,10.3,101.05,101.05,0,0,1-40.18,9.9A94.93,94.93,0,0,1,322,509.69,119.89,119.89,0,0,1,302.07,504c-6.47-2.4-12.71-5.31-18.87-8.31S270.92,489.51,265,486a190.62,190.62,0,0,1-17.11-11.42,194.3,194.3,0,0,1-15.82-13.08Z"/><path class="cls-2" d="M127,169.31a490.6,490.6,0,0,1,209.82,0"/><path class="cls-2" d="M121.35,260.05a746.26,746.26,0,0,1,226.83-5.67"/><path class="cls-2" d="M155.37,356.45a558.71,558.71,0,0,1,158.79,0"/><circle cx="178.89" cy="22.68" r="22.68"/><circle cx="292.31" cy="22.68" r="22.68"/><circle cx="234.77" cy="220.35" r="48.2"/><ellipse class="cls-3" cx="242.68" cy="695.2" rx="161.62" ry="34.02"/><path class="cls-4" d="M232.76,484a94.51,94.51,0,0,0,2,28c.31,1.37.65,2.7,1,4"/><path class="cls-4" d="M242.26,528.5a48.32,48.32,0,0,0,8,9,49.39,49.39,0,0,0,18,10"/><path class="cls-4" d="M276.26,548.5a20.2,20.2,0,0,0,22-13"/><path class="cls-4" d="M300.26,529.5a17.66,17.66,0,0,0-4-13c-5.34-6.26-13.06-6-14-6"/><path class="cls-4" d="M275.26,511.5a32.91,32.91,0,0,0-14,8,32.47,32.47,0,0,0-6,8"/><path class="cls-4" d="M252.26,532.5a71.37,71.37,0,0,0-10,28"/><path class="cls-4" d="M242.26,568.5a37.31,37.31,0,0,0,2,21,36.76,36.76,0,0,0,8,12"/><path class="cls-4" d="M261.26,606.5c3.49,2.59,12.7,8.64,25,8a35.74,35.74,0,0,0,10-2"/></g></g></svg>