<?xml version="1.0" encoding="utf-8"?>
<!-- Generator: Adobe Illustrator 23.0.1, SVG Export Plug-In . SVG Version: 6.00 Build 0)  -->
<svg version="1.1" id="Calque_1" xmlns="http://www.w3.org/2000/svg" xmlns:xlink="http://www.w3.org/1999/xlink" x="0px" y="0px"
	 viewBox="0 0 1125 2436" style="enable-background:new 0 0 1125 2436;" xml:space="preserve">
<style type="text/css">
	.st0{fill:#EE9F28;}
	.st1{fill:none;stroke:#000000;stroke-miterlimit:10;}
	.st2{fill:#050505;}
	.st3{fill:none;stroke:#050505;stroke-width:3;stroke-miterlimit:10;}
</style>
<g>
	<path class="st0" d="M560.9,1395.4l3.3,2.9c24.4-21.6,80.3-77.7,102-157.6c2.3-8.5,6.7-21.5,9.4-38.4
		c4.1-25.5,12.2-75.8-14.9-119.3c-4.3-6.9-13.6-22.2-32.1-33.8c-21.3-13.3-42.2-16-50.2-16.8c-3-0.3-11.5-1-22.7,0
		c-10,0.9-33.1,3.2-55.2,18.2c0,0-17.5,11.9-30.3,32.3c-22.1,35.3-18.7,74-16.3,102.5c2.1,24.8,7.4,44.2,10.7,55.1
		c7.2,23.5,15.5,40.2,20.4,49.8c24.7,48.5,60.3,88.2,79.2,107.8"/>
	<path d="M561,1395.3l3.3,2.9l-0.4,0c8.2-7.6,16-15.4,23.5-23.7c7.5-8.2,14.6-16.8,21.4-25.5l5-6.7l1.2-1.7l1.2-1.7l2.4-3.4l2.4-3.4
		c0.8-1.1,1.6-2.3,2.3-3.5l4.5-7c1.5-2.3,2.9-4.7,4.4-7.1l4.3-7.1l3.9-7.3c1.3-2.4,2.7-4.9,3.8-7.4c2.4-5,4.9-9.9,7-15.1l3.2-7.7
		c1.1-2.6,1.9-5.2,2.9-7.8c0.9-2.6,1.9-5.2,2.8-7.8l2.4-8c1.6-5.3,3.2-10.7,4.7-16c1.5-5.3,3-10.7,4.2-16.1
		c1.3-5.4,2.2-10.8,3.1-16.3c1.9-11,3.3-22,3.9-33c0.5-11.1,0.2-22.2-1.3-33.1c-1.5-11-4.3-21.8-8.6-32c-2.1-5.1-4.6-10.1-7.5-14.8
		c-2.8-4.8-5.9-9.4-9.3-13.8c-3.4-4.4-7.2-8.4-11.3-12.1c-4.1-3.7-8.6-7-13.3-9.8c-4.7-2.9-9.7-5.4-14.8-7.5
		c-5.1-2.1-10.4-3.8-15.8-5.2c-10.7-2.7-21.8-3.9-32.9-3.4c-11,0.5-22.1,2-32.6,5.1c-10.6,3.1-20.7,7.7-29.7,13.8l-0.9,0.3
		c0.2,0,0.4,0,0.6-0.1c0.1-0.1,0.2-0.1,0.1-0.1l-0.1,0.1l-0.3,0.2l-0.6,0.4l-1.2,0.9c-0.8,0.6-1.6,1.3-2.4,1.9
		c-1.6,1.3-3.1,2.6-4.6,4c-3,2.7-5.8,5.6-8.5,8.7c-5.4,6-10.2,12.6-14.1,19.7c-4,7-7.2,14.5-9.5,22.3c-2.3,7.8-3.8,15.7-4.7,23.8
		c-1.7,16.2-0.8,32.5,0.6,48.9c1.3,16.3,4,32.4,8.2,48.2c4.3,15.8,9.7,31.2,16.5,46.1c1.7,3.7,3.5,7.4,5.3,11.1
		c1.9,3.7,3.8,7.3,5.7,10.9c4,7.2,8.1,14.3,12.4,21.2c8.7,13.9,18.2,27.3,28.4,40.2c5.1,6.5,10.3,12.8,15.6,19.1
		c5.4,6.2,10.8,12.4,16.4,18.4l-0.3,0.3c-23.2-23.3-44.5-48.7-62.5-76.4c-9-13.8-17.1-28.3-24.2-43.2c-7-15-12.9-30.5-17.3-46.5
		c-4.4-16-7.3-32.4-8.5-48.9c-1.4-16.4-2.4-33.1-0.5-49.7c0.9-8.3,2.6-16.5,5-24.5c2.5-8,5.9-15.7,10-23c4.1-7.3,9.1-14.1,14.7-20.2
		c2.8-3.1,5.8-6,8.9-8.8c1.5-1.4,3.1-2.7,4.8-4.1c0.8-0.7,1.6-1.3,2.5-1.9l1.3-0.9l0.6-0.5l0.3-0.2l0.1-0.1c0,0,0.1-0.1,0.3-0.2
		c0.3-0.2,0.6-0.3,0.9-0.3l-0.9,0.3c9.5-6.3,19.9-10.9,30.8-13.9c5.4-1.5,11-2.6,16.6-3.3c2.8-0.4,5.6-0.6,8.4-0.9
		c2.8-0.2,5.6-0.4,8.4-0.4c11.2-0.2,22.5,1.1,33.4,4c10.8,2.9,21.3,7.3,30.8,13.1c4.8,2.9,9.3,6.3,13.5,10.1
		c4.2,3.8,8,7.9,11.4,12.3c3.5,4.4,6.5,9.1,9.4,13.9c2.9,4.8,5.5,9.8,7.7,14.9c4.4,10.3,7.4,21.2,9.2,32.3c1.8,11.1,2.3,22.3,2,33.5
		c-0.3,11.2-1.6,22.4-3.3,33.4c-1.5,11.1-4,22.1-7.1,32.8c-1.6,5.4-3,10.7-4.7,16.1l-2.5,8c-0.9,2.6-1.9,5.3-2.9,7.9
		c-1,2.6-1.9,5.3-3,7.9l-3.3,7.7c-2.1,5.2-4.7,10.1-7.2,15.2c-10,20.1-22.6,38.7-36.5,56.2c-7,8.7-14.3,17.2-22.1,25.2
		c-7.8,8-15.8,15.7-24.3,23l-0.2,0.2l-0.2-0.2l-3.2-3L561,1395.3z"/>
</g>
<g>
	<g>
		<path d="M564.6,1398.5c-5.1,4.6-10.5,9-16.1,13c-5.6,4.1-11.4,7.9-17.4,11.4c-6,3.5-12.2,6.6-18.4,9.6c-6.2,3-12.5,5.9-19.1,8.3
			c-13,4.9-27,7.9-41,7.6c-14.1-0.2-28-3.7-40.7-9.4c-12.7-5.8-24.5-13.5-35-22.6c-5.2-4.6-10.2-9.4-14.7-14.7
			c-4.4-5.4-8.4-11.1-11.8-17.1c-6.9-12-11.7-25.2-14.5-38.8c-0.7-3.4-1.3-6.8-1.7-10.2c-0.5-3.4-0.9-6.9-1.2-10.3
			c-0.6-6.9-0.8-13.8-0.7-20.8c0.1-6.9,0.4-13.8,0.8-20.7c0.1-1.7,0.2-3.5,0.4-5.2c0.1-1.7,0.2-3.5,0.4-5.2l0.6-5.2
			c0.2-1.7,0.5-3.4,0.7-5.2c0.4-3.4,1.1-6.9,1.7-10.3c0.7-3.4,1.4-6.8,2.2-10.2c0.8-3.4,1.8-6.7,2.7-10.1c1-3.3,2-6.6,3.2-9.9
			c4.5-13.2,10.2-25.9,16.8-38.1c3.3-6.1,6.8-12.1,10.6-17.9c3.8-5.8,7.7-11.5,11.9-17.1c4.2-5.6,8.5-11,13-16.3
			c4.5-5.3,9-10.5,13.7-15.6c9.4-10.2,19.4-19.9,29.9-28.8c10.6-9,21.8-17.1,33.3-24.7c5.8-3.7,11.7-7.4,17.8-10.7
			c6-3.4,12.1-6.6,18.4-9.6l0.2,0.4c-6.1,3.3-12,6.7-17.9,10.3c-5.9,3.6-11.6,7.4-17.3,11.3c-11.3,7.8-22.1,16.3-32.4,25.4
			c-10.3,9.1-20,18.8-29.1,29c-9.1,10.3-18,20.8-26.1,31.8c-16.3,22-30,46-39.1,71.8c-1.2,3.2-2.2,6.5-3.2,9.7
			c-0.9,3.3-1.9,6.6-2.8,9.9c-0.9,3.3-1.6,6.6-2.4,10c-0.6,3.4-1.4,6.7-1.9,10.1c-1.2,6.8-1.9,13.6-2.5,20.4
			c-0.6,6.9-1.1,13.7-1.3,20.6c-0.4,13.7,0.1,27.5,2.8,41c1.3,6.7,3.2,13.4,5.5,19.8c2.3,6.5,5.3,12.7,8.8,18.6
			c3.5,5.9,7.5,11.5,11.9,16.7c4.5,5.1,9.6,9.7,14.9,14.1c10.6,8.7,22.3,16,34.8,21.3c12.5,5.3,25.9,8.5,39.4,8.9
			c6.8,0.2,13.5-0.3,20.2-1.6c3.3-0.6,6.6-1.4,9.9-2.3c3.3-0.9,6.5-1.9,9.7-3.1c6.4-2.3,12.8-5,19-7.8c6.3-2.8,12.5-5.7,18.5-9
			c6-3.3,11.9-6.8,17.6-10.7c5.7-3.8,11.2-7.9,16.6-12.2L564.6,1398.5z"/>
	</g>
</g>
<g>
	<g>
		<path d="M564.6,1398.2c5.3,4.3,10.7,8.4,16.3,12.3c5.6,3.8,11.4,7.4,17.4,10.7c5.9,3.3,12,6.3,18.3,9.1c6.2,2.8,12.4,5.5,18.8,7.8
			c12.7,4.6,26.1,7.3,39.5,6.8c13.4-0.5,26.6-3.8,38.9-9.4c12.3-5.4,23.8-12.9,34.1-21.7c2.6-2.2,5.1-4.5,7.5-6.8
			c2.4-2.4,4.8-4.8,6.9-7.4c4.3-5.2,8.2-10.9,11.5-16.8c6.7-11.8,11-24.9,13.5-38.3c0.6-3.3,1.1-6.7,1.5-10.1
			c0.4-3.4,0.7-6.8,0.8-10.2c0.4-6.8,0.4-13.6,0.2-20.4c-0.2-6.8-0.7-13.6-1.3-20.4c-0.6-6.8-1.3-13.5-2.4-20.2l-0.4-2.5l-0.5-2.5
			l-1-5c-0.7-3.3-1.4-6.6-2.3-9.9c-0.8-3.3-1.8-6.5-2.7-9.8c-1-3.2-2-6.5-3.1-9.7c-8.9-25.6-22.2-49.6-38.1-71.5
			c-7.9-11-16.6-21.5-25.5-31.8c-8.9-10.3-18.4-20-28.5-29.1c-20.2-18.2-42.6-34-66.5-47.2l0.2-0.4c6.1,3,12.2,6.2,18.1,9.6
			c6,3.4,11.8,7,17.5,10.8c2.8,1.9,5.7,3.8,8.5,5.8c1.4,1,2.8,2,4.2,3l4.1,3.1c2.8,2,5.4,4.2,8.1,6.3c2.7,2.2,5.3,4.4,7.9,6.6
			c10.4,9,20.2,18.7,29.3,28.9c4.6,5.1,9,10.3,13.4,15.6c4.4,5.3,8.6,10.7,12.7,16.3c4.1,5.6,7.9,11.3,11.6,17.1
			c3.7,5.8,7.2,11.8,10.3,17.9c6.4,12.2,11.9,24.8,16.3,37.9c1.1,3.3,2.1,6.6,3.1,9.8c0.9,3.3,1.9,6.6,2.6,10
			c0.8,3.3,1.5,6.7,2.2,10.1l0.9,5.1l0.4,2.5l0.4,2.6c1.1,6.8,1.6,13.7,2,20.5c0.4,6.8,0.7,13.7,0.8,20.5c0.2,13.7-0.8,27.5-3.3,41
			c-1.3,6.7-3.1,13.4-5.4,19.9c-1.1,3.2-2.4,6.4-3.8,9.6c-0.7,1.6-1.4,3.1-2.2,4.7c-0.8,1.5-1.5,3.1-2.4,4.6
			c-3.3,6-7.1,11.8-11.3,17.2c-2.1,2.8-4.4,5.3-6.8,7.8c-2.4,2.5-4.9,4.9-7.4,7.2c-5.1,4.6-10.5,8.9-16.2,12.8
			c-5.7,3.9-11.7,7.4-18,10.3c-12.5,5.9-26.3,9.5-40.2,9.9c-7,0.2-13.9-0.3-20.8-1.7c-6.8-1.3-13.5-3.3-19.9-5.7
			c-6.5-2.4-12.7-5.3-18.9-8.3c-6.2-3-12.3-6.1-18.2-9.6c-5.9-3.5-11.6-7.3-17.1-11.4c-5.5-4.1-10.8-8.4-15.8-13.1L564.6,1398.2z"/>
	</g>
</g>
<path class="st1" d="M459.3,1106.3c27.3-6,61.9-11.1,102.1-11.3c42.7-0.2,79.3,5.1,107.7,11.3"/>
<path class="st1" d="M453.6,1197c31.1-5.6,67.3-10,107.7-11.3c44.9-1.5,85.1,1.3,119.1,5.7"/>
<path class="st1" d="M487.6,1293.4c23-3.3,49.7-5.7,79.4-5.7c23.2,0,50,1.4,79.4,5.7"/>
<circle cx="511.1" cy="959.7" r="22.7"/>
<circle cx="624.5" cy="959.7" r="22.7"/>
<circle cx="567" cy="1157.4" r="48.2"/>
<ellipse class="st2" cx="574.9" cy="1632.2" rx="161.6" ry="34"/>
<path class="st2" d="M563,1411"/>
<path class="st3" d="M565,1421c-0.6,8.4-0.3,17.9,2,28c0.3,1.4,0.6,2.7,1,4"/>
<path class="st3" d="M574.5,1465.5c1.9,2.7,4.5,5.9,8,9c6.7,5.8,13.6,8.6,18,10"/>
<path class="st3" d="M608.5,1485.5c1.6,0.2,7.9,1,14-3c5.3-3.4,7.4-8.3,8-10"/>
<path class="st3" d="M632.5,1466.5c0.1-1.1,0.7-7.5-4-13c-5.3-6.3-13.1-6-14-6"/>
<path class="st3" d="M607.5,1448.5c-3.1,0.9-8.8,3-14,8c-2.9,2.8-4.8,5.7-6,8"/>
<path class="st3" d="M584.5,1469.5c-2.3,3.8-4.9,8.8-7,15c-1.6,4.8-2.5,9.3-3,13"/>
<path class="st3" d="M574.5,1505.5c-0.7,3.6-1.8,11.8,2,21c2.3,5.7,5.7,9.7,8,12"/>
<path class="st3" d="M593.5,1543.5c3.5,2.6,12.7,8.6,25,8c3.9-0.2,7.3-1,10-2"/>
</svg>
